# xmcd CD database file
#
# Track frame offsets:
#	150
#	98599
#	132293
#	164563
#	172054
#	184727
#	189161
#	212006
#	214269
#	219373
#	233840
#	237860
#	242977
#	255497
#	262283
#	268065
#	281327
#	293605
#	308554
#
# Disc length: 4470 seconds
#
# Revision: 0
# Processed by: cddbd v1.5.1PL2 Copyright (c) Steve Scherf et al.
# Submitted via: CDex 1.51
#
DISCID=1b117413
DTITLE=上原彩子 - チャイコフスキー/ピアノ協奏曲第1番　ムソルグスキー/組曲「展覧会の絵」
DYEAR=2005
DGENRE=Classical
TTITLE0=第1楽章:アレグロ・ノン・トロッポ・エ・モルト・マエストーソ〜アレグロ・コン・スピリート
TTITLE1=第2楽章:アンダンティーノ・シンプリーチェ〜プレスティシモ・テンポＩ
TTITLE2=第2楽章:アレグロ・コン・フォーコ
TTITLE3=プロムナード
TTITLE4=?：こびと
TTITLE5=プロムナード
TTITLE6=?：古城
TTITLE7=プロムナード
TTITLE8=?：チュイルリー宮殿の庭
TTITLE9=?；ビドロ
TTITLE10=プロムナード
TTITLE11=?：卵のカラをつけたヒナ鳥の踊り
TTITLE12=?：サムエル・ゴールデンベルクとシュムイレ
TTITLE13=プロムナード
TTITLE14=?：リモージュの市場
TTITLE15=?：カタコンブ(ローマ時代の墓地)
TTITLE16=死者との対話
TTITLE17=?：バーバ・ヤーガの小屋
TTITLE18=?：キエフの大門
EXTD=YEAR: 2005
EXTT0=
EXTT1=
EXTT2=
EXTT3=
EXTT4=
EXTT5=
EXTT6=
EXTT7=
EXTT8=
EXTT9=
EXTT10=
EXTT11=
EXTT12=
EXTT13=
EXTT14=
EXTT15=
EXTT16=
EXTT17=
EXTT18=
PLAYORDER=
